<svg width="48" height="48" viewBox="0 0 48 48" fill="none" xmlns="http://www.w3.org/2000/svg">
<rect width="48" height="48" fill="white" fill-opacity="0.01"/>
<path d="M14.9397 11.9992C14.7148 11.9995 14.493 12.0504 14.2904 12.148C14.0879 12.2456 13.9099 12.3875 13.7697 12.5632L4.61965 23.9992H17.9997C18.3975 23.9992 18.779 24.1572 19.0603 24.4385C19.3416 24.7198 19.4997 25.1014 19.4997 25.4992C19.4997 26.6927 19.9738 27.8373 20.8177 28.6812C21.6616 29.5251 22.8062 29.9992 23.9997 29.9992C25.1931 29.9992 26.3377 29.5251 27.1816 28.6812C28.0255 27.8373 28.4997 26.6927 28.4997 25.4992C28.4997 25.1014 28.6577 24.7198 28.939 24.4385C29.2203 24.1572 29.6018 23.9992 29.9997 23.9992H43.3797L34.2297 12.5632C34.0894 12.3875 33.9114 12.2456 33.7089 12.148C33.5063 12.0504 33.2845 11.9995 33.0597 11.9992H14.9397ZM44.8017 26.9992H31.3497C31.0054 28.6946 30.0856 30.2189 28.746 31.3138C27.4065 32.4086 25.7297 33.0067 23.9997 33.0067C22.2696 33.0067 20.5928 32.4086 19.2533 31.3138C17.9137 30.2189 16.9939 28.6946 16.6497 26.9992H3.19765L4.15765 34.6852C4.20304 35.0484 4.37969 35.3825 4.65432 35.6246C4.92894 35.8666 5.2826 35.9998 5.64865 35.9992H42.3507C42.7162 35.9991 43.0691 35.8655 43.3431 35.6236C43.6171 35.3816 43.7933 35.0479 43.8387 34.6852L44.7987 26.9992H44.8017ZM11.4267 10.6882C11.8484 10.1609 12.3835 9.73533 12.9921 9.44295C13.6008 9.15057 14.2674 8.99891 14.9427 8.99921H33.0567C33.7319 8.99891 34.3985 9.15057 35.0072 9.44295C35.6158 9.73533 36.1509 10.1609 36.5727 10.6882L47.6727 24.5632C47.7974 24.7198 47.8895 24.8997 47.9436 25.0924C47.9977 25.2851 48.0127 25.4866 47.9877 25.6852L46.8177 35.0572C46.6816 36.1459 46.1525 37.1473 45.3299 37.8733C44.5073 38.5992 43.4478 38.9996 42.3507 38.9992H5.64865C4.55152 38.9996 3.49202 38.5992 2.6694 37.8733C1.84677 37.1473 1.3177 36.1459 1.18165 35.0572L0.0116514 25.6852C-0.0129373 25.4864 0.00253271 25.2847 0.0571489 25.092C0.111765 24.8993 0.204421 24.7195 0.329651 24.5632L11.4297 10.6882H11.4267Z" fill="#1C1939"/>
</svg>
