<svg width="30" height="28" viewBox="0 0 30 28" fill="none" xmlns="http://www.w3.org/2000/svg">
<path d="M11.2534 9.31168C11.2534 10.0576 10.9571 10.773 10.4297 11.3004C9.90221 11.8279 9.18684 12.1242 8.44092 12.1242C7.695 12.1242 6.97963 11.8279 6.45218 11.3004C5.92473 10.773 5.62842 10.0576 5.62842 9.31168C5.62842 8.56575 5.92473 7.85038 6.45218 7.32294C6.97963 6.79549 7.695 6.49918 8.44092 6.49918C9.18684 6.49918 9.90221 6.79549 10.4297 7.32294C10.9571 7.85038 11.2534 8.56575 11.2534 9.31168Z" fill="#DC3545"/>
<path d="M3.75342 0.874176C2.75886 0.874176 1.80503 1.26926 1.10177 1.97253C0.398506 2.67579 0.00341797 3.62961 0.00341797 4.62418V23.3742C0.00341797 24.3687 0.398506 25.3226 1.10177 26.0258C1.80503 26.7291 2.75886 27.1242 3.75342 27.1242H26.2534C27.248 27.1242 28.2018 26.7291 28.9051 26.0258C29.6083 25.3226 30.0034 24.3687 30.0034 23.3742V4.62418C30.0034 3.62961 29.6083 2.67579 28.9051 1.97253C28.2018 1.26926 27.248 0.874176 26.2534 0.874176H3.75342ZM26.2534 2.74918C26.7507 2.74918 27.2276 2.94672 27.5792 3.29835C27.9309 3.64998 28.1284 4.1269 28.1284 4.62418V16.8117L21.0465 13.1611C20.8707 13.073 20.6716 13.0424 20.4775 13.0737C20.2833 13.105 20.1039 13.1966 19.9647 13.3354L13.0084 20.2917L8.02092 16.9692C7.84084 16.8493 7.62485 16.7954 7.40955 16.8166C7.19426 16.8377 6.99292 16.9327 6.83967 17.0854L1.87842 21.4992V4.62418C1.87842 4.1269 2.07596 3.64998 2.42759 3.29835C2.77922 2.94672 3.25614 2.74918 3.75342 2.74918H26.2534Z" fill="#DC3545"/>
</svg>
