<svg width="16" height="12" viewBox="0 0 16 12" fill="none" xmlns="http://www.w3.org/2000/svg">
<path d="M15.9996 5.99918C15.9996 5.99918 12.9996 0.499176 7.99965 0.499176C2.99965 0.499176 -0.000350952 5.99918 -0.000350952 5.99918C-0.000350952 5.99918 2.99965 11.4992 7.99965 11.4992C12.9996 11.4992 15.9996 5.99918 15.9996 5.99918ZM1.17265 5.99918C1.65616 5.2643 2.21229 4.57986 2.83265 3.95618C4.11965 2.66718 5.87965 1.49918 7.99965 1.49918C10.1196 1.49918 11.8786 2.66718 13.1676 3.95618C13.788 4.57986 14.3441 5.2643 14.8276 5.99918C14.7696 6.08618 14.7056 6.18218 14.6326 6.28718C14.2976 6.76718 13.8026 7.40718 13.1676 8.04218C11.8786 9.33118 10.1186 10.4992 7.99965 10.4992C5.87965 10.4992 4.12065 9.33118 2.83165 8.04218C2.2113 7.41849 1.65617 6.73405 1.17265 5.99918Z" fill="white"/>
<path d="M7.99965 3.49918C7.33661 3.49918 6.70072 3.76257 6.23188 4.23141C5.76304 4.70025 5.49965 5.33613 5.49965 5.99918C5.49965 6.66222 5.76304 7.2981 6.23188 7.76694C6.70072 8.23578 7.33661 8.49918 7.99965 8.49918C8.66269 8.49918 9.29857 8.23578 9.76742 7.76694C10.2363 7.2981 10.4996 6.66222 10.4996 5.99918C10.4996 5.33613 10.2363 4.70025 9.76742 4.23141C9.29857 3.76257 8.66269 3.49918 7.99965 3.49918ZM4.49965 5.99918C4.49965 5.07092 4.8684 4.18068 5.52478 3.5243C6.18115 2.86793 7.07139 2.49918 7.99965 2.49918C8.92791 2.49918 9.81815 2.86793 10.4745 3.5243C11.1309 4.18068 11.4996 5.07092 11.4996 5.99918C11.4996 6.92743 11.1309 7.81767 10.4745 8.47405C9.81815 9.13043 8.92791 9.49918 7.99965 9.49918C7.07139 9.49918 6.18115 9.13043 5.52478 8.47405C4.8684 7.81767 4.49965 6.92743 4.49965 5.99918Z" fill="white"/>
</svg>
