<svg width="12" height="12" viewBox="0 0 12 12" fill="none" xmlns="http://www.w3.org/2000/svg">
<path fill-rule="evenodd" clip-rule="evenodd" d="M5.99966 0.749336C6.1157 0.749336 6.22698 0.79543 6.30902 0.877477C6.39107 0.959524 6.43716 1.0708 6.43716 1.18684V5.56184H10.8122C10.9282 5.56184 11.0395 5.60793 11.1215 5.68998C11.2036 5.77202 11.2497 5.8833 11.2497 5.99934C11.2497 6.11537 11.2036 6.22665 11.1215 6.3087C11.0395 6.39074 10.9282 6.43684 10.8122 6.43684H6.43716V10.8118C6.43716 10.9279 6.39107 11.0391 6.30902 11.1212C6.22698 11.2032 6.1157 11.2493 5.99966 11.2493C5.88363 11.2493 5.77235 11.2032 5.69031 11.1212C5.60826 11.0391 5.56216 10.9279 5.56216 10.8118V6.43684H1.18716C1.07113 6.43684 0.959852 6.39074 0.877805 6.3087C0.795758 6.22665 0.749664 6.11537 0.749664 5.99934C0.749664 5.8833 0.795758 5.77202 0.877805 5.68998C0.959852 5.60793 1.07113 5.56184 1.18716 5.56184H5.56216V1.18684C5.56216 1.0708 5.60826 0.959524 5.69031 0.877477C5.77235 0.79543 5.88363 0.749336 5.99966 0.749336V0.749336Z" fill="#212529"/>
</svg>
