<svg width="14" height="15" viewBox="0 0 14 15" fill="none" xmlns="http://www.w3.org/2000/svg">
<path d="M4.49965 5.49918C4.63226 5.49918 4.75943 5.55185 4.8532 5.64562C4.94697 5.73939 4.99965 5.86657 4.99965 5.99918V11.9992C4.99965 12.1318 4.94697 12.259 4.8532 12.3527C4.75943 12.4465 4.63226 12.4992 4.49965 12.4992C4.36704 12.4992 4.23986 12.4465 4.1461 12.3527C4.05233 12.259 3.99965 12.1318 3.99965 11.9992V5.99918C3.99965 5.86657 4.05233 5.73939 4.1461 5.64562C4.23986 5.55185 4.36704 5.49918 4.49965 5.49918ZM6.99965 5.49918C7.13226 5.49918 7.25943 5.55185 7.3532 5.64562C7.44697 5.73939 7.49965 5.86657 7.49965 5.99918V11.9992C7.49965 12.1318 7.44697 12.259 7.3532 12.3527C7.25943 12.4465 7.13226 12.4992 6.99965 12.4992C6.86704 12.4992 6.73986 12.4465 6.6461 12.3527C6.55233 12.259 6.49965 12.1318 6.49965 11.9992V5.99918C6.49965 5.86657 6.55233 5.73939 6.6461 5.64562C6.73986 5.55185 6.86704 5.49918 6.99965 5.49918ZM9.99965 5.99918C9.99965 5.86657 9.94697 5.73939 9.8532 5.64562C9.75943 5.55185 9.63226 5.49918 9.49965 5.49918C9.36704 5.49918 9.23986 5.55185 9.1461 5.64562C9.05233 5.73939 8.99965 5.86657 8.99965 5.99918V11.9992C8.99965 12.1318 9.05233 12.259 9.1461 12.3527C9.23986 12.4465 9.36704 12.4992 9.49965 12.4992C9.63226 12.4992 9.75943 12.4465 9.8532 12.3527C9.94697 12.259 9.99965 12.1318 9.99965 11.9992V5.99918Z" fill="white"/>
<path fill-rule="evenodd" clip-rule="evenodd" d="M13.4996 2.99918C13.4996 3.26439 13.3943 3.51875 13.2068 3.70628C13.0192 3.89382 12.7649 3.99918 12.4996 3.99918H11.9996V12.9992C11.9996 13.5296 11.7889 14.0383 11.4139 14.4134C11.0388 14.7885 10.5301 14.9992 9.99965 14.9992H3.99965C3.46922 14.9992 2.96051 14.7885 2.58544 14.4134C2.21036 14.0383 1.99965 13.5296 1.99965 12.9992V3.99918H1.49965C1.23443 3.99918 0.980079 3.89382 0.792542 3.70628C0.605006 3.51875 0.499649 3.26439 0.499649 2.99918V1.99918C0.499649 1.73396 0.605006 1.47961 0.792542 1.29207C0.980079 1.10453 1.23443 0.999176 1.49965 0.999176H4.99965C4.99965 0.73396 5.10501 0.479606 5.29254 0.292069C5.48008 0.104533 5.73443 -0.000823975 5.99965 -0.000823975H7.99965C8.26487 -0.000823975 8.51922 0.104533 8.70676 0.292069C8.89429 0.479606 8.99965 0.73396 8.99965 0.999176H12.4996C12.7649 0.999176 13.0192 1.10453 13.2068 1.29207C13.3943 1.47961 13.4996 1.73396 13.4996 1.99918V2.99918ZM3.11765 3.99918L2.99965 4.05818V12.9992C2.99965 13.2644 3.10501 13.5187 3.29254 13.7063C3.48008 13.8938 3.73443 13.9992 3.99965 13.9992H9.99965C10.2649 13.9992 10.5192 13.8938 10.7068 13.7063C10.8943 13.5187 10.9996 13.2644 10.9996 12.9992V4.05818L10.8816 3.99918H3.11765ZM1.49965 2.99918V1.99918H12.4996V2.99918H1.49965Z" fill="white"/>
</svg>
